<?xml version="1.0" encoding="UTF-8"?>
<svg version="1.1" xmlns="http://www.w3.org/2000/svg" width="600" height="600">
<path d="M0 0 C1.2256603 -0.00199105 2.4513206 -0.0039821 3.71412212 -0.00603348 C5.07106852 -0.00318064 6.42801473 -0.00023504 7.78496075 0.00279331 C9.22883154 0.00235722 10.67270226 0.00148161 12.11657256 0.00020415 C16.08443518 -0.00203335 20.05227085 0.00197031 24.02013004 0.00698221 C28.2988824 0.01129719 32.57763322 0.00983954 36.85638714 0.00907993 C44.26970372 0.00855536 51.68301151 0.01169518 59.09632587 0.01731777 C69.81475875 0.02544183 80.53318737 0.02804892 91.251623 0.02930576 C108.64121191 0.03149485 126.03079613 0.03815108 143.4203825 0.04760838 C160.31361143 0.05678618 177.20683908 0.06386521 194.10007 0.06811619 C195.14121784 0.06837891 196.18236568 0.06864164 197.25506345 0.06891232 C202.47815114 0.07021735 207.70123884 0.07148106 212.92432654 0.07272422 C256.26098711 0.08309239 299.59764257 0.10070684 342.93429852 0.12304783 C342.93429852 0.78304783 342.93429852 1.44304783 342.93429852 2.12304783 C343.73867352 2.14431736 343.73867352 2.14431736 344.55929852 2.16601658 C372.64283808 3.87504777 400.82902629 21.95489845 420.50851727 40.76464939 C421.83631416 42.02969424 423.1815426 43.27637293 424.52804852 44.52148533 C440.94916952 60.16312274 452.53037926 80.35991941 459.55929852 101.74804783 C459.84877361 102.61163914 460.13824871 103.47523045 460.43649578 104.36499119 C466.34866153 122.9647768 466.37876049 141.34034254 466.34113157 160.63214195 C466.33635744 164.76384516 466.34894687 168.89550372 466.35914898 173.02719212 C466.37626016 181.10020939 466.37719302 189.17314857 466.37193608 197.24617926 C466.36787863 203.81454578 466.36935654 210.3828894 466.37468433 216.95125484 C466.37543276 217.88957524 466.37618118 218.82789564 466.37695228 219.79464998 C466.37848391 221.70144629 466.38002226 223.60824258 466.38156725 225.51503887 C466.39526459 243.35773295 466.38987418 261.20038307 466.37838203 279.04307612 C466.36845332 295.32740771 466.38138901 311.61162562 466.40531623 327.89593969 C466.42976278 344.66145022 466.43930143 361.42690793 466.4326635 378.19243592 C466.4291835 387.58707307 466.43132225 396.98162288 466.44891453 406.37624645 C466.46370626 414.37376264 466.46418163 422.37112996 466.44684362 430.36864344 C466.43838806 434.44009321 466.43604875 438.51127786 466.45149517 442.58271313 C466.52254569 462.73406983 465.85258382 482.02937167 458.80929852 501.18554783 C458.51708416 501.99588474 458.2248698 502.80622166 457.92380047 503.64111423 C452.37769474 518.43549788 444.4527852 531.58650438 434.93429852 544.12304783 C434.1028532 545.3064072 434.1028532 545.3064072 433.25461102 546.51367283 C430.24138177 550.78105696 426.92185638 554.08133294 422.91086102 557.42382908 C421.09176033 558.98768046 419.49996027 560.61546809 417.87179852 562.37304783 C407.02371098 573.3953019 392.77738902 581.53320602 378.93429852 588.12304783 C378.14797039 588.50718845 377.36164227 588.89132908 376.55148602 589.28711033 C373.00080687 590.9601422 369.85076353 592.28541041 365.93429852 592.74804783 C364.44929852 592.93367283 364.44929852 592.93367283 362.93429852 593.12304783 C362.60429852 593.78304783 362.27429852 594.44304783 361.93429852 595.12304783 C359.86421138 595.64056961 357.78796156 596.13909789 355.69487613 596.55392671 C353.81500181 596.9414819 351.94557452 597.38266623 350.08909994 597.87013793 C341.74775946 600.03100812 333.98311405 600.54409228 325.392169 600.4905405 C323.97056788 600.49256988 322.54896815 600.49591511 321.1273728 600.50044608 C317.25768209 600.50902042 313.38823491 600.49909809 309.51856554 600.48590374 C305.33106343 600.47493696 301.14358207 600.48142963 296.95607281 600.48568821 C288.76753302 600.49130349 280.57908741 600.48104128 272.39056366 600.46540025 C262.84460139 600.44780794 253.29865704 600.44643986 243.75268108 600.44578466 C226.71513682 600.4440989 209.67763526 600.42831208 192.64010906 600.40429783 C176.12610806 600.38103854 159.61213412 600.36687221 143.09811687 600.3632822 C142.08079064 600.36305944 141.0634644 600.36283667 140.0153101 600.36260715 C137.96572312 600.36216453 135.91613615 600.36172251 133.86654917 600.36128108 C132.85538265 600.36106152 131.84421614 600.36084195 130.80240822 600.36061573 C129.79371402 600.36039974 128.78501982 600.36018376 127.74575913 600.35996123 C111.9813687 600.35625544 96.21698262 600.3448965 80.45259697 600.33248533 C74.749312 600.32805946 69.04602743 600.32461732 63.34274142 600.3218632 C54.29523067 600.31742029 45.24773595 600.30960999 36.2002353 600.2950888 C32.06913693 600.288508 27.93805256 600.28342013 23.80694866 600.28262806 C20.01900826 600.28183543 16.23110321 600.27637397 12.44317383 600.26730856 C10.43752534 600.26365038 8.43186983 600.2647731 6.42621845 600.26611543 C-1.12003311 600.242242 -8.55692261 599.88098295 -16.06570148 599.12304783 C-16.06570148 598.46304783 -16.06570148 597.80304783 -16.06570148 597.12304783 C-17.22070148 597.06117283 -18.37570148 596.99929783 -19.56570148 596.93554783 C-44.15777481 594.08763949 -68.30418551 578.64898008 -86.06570148 562.12304783 C-86.67832844 561.554249 -87.29095539 560.98545017 -87.9221468 560.39941502 C-96.85015408 552.0127725 -104.27354802 543.29769371 -111.06570148 533.12304783 C-111.5671468 532.49011814 -112.06859211 531.85718845 -112.58523273 531.20507908 C-114.75657345 528.15145216 -116.34804739 524.85302636 -118.00320148 521.49804783 C-118.35511555 520.78890232 -118.70702961 520.07975681 -119.06960773 519.34912205 C-126.06570148 505.1010589 -126.06570148 505.1010589 -126.06570148 501.12304783 C-126.72570148 500.79304783 -127.38570148 500.46304783 -128.06570148 500.12304783 C-128.66335773 498.19726658 -128.66335773 498.19726658 -129.12820148 495.81054783 C-129.28417805 495.03066502 -129.44015461 494.2507822 -129.60085773 493.44726658 C-129.75425617 492.68027439 -129.90765461 491.9132822 -130.06570148 491.12304783 C-130.20852737 490.56575646 -130.35135326 490.0084651 -130.4985072 489.43428612 C-133.24690044 478.23496363 -134.50370295 467.54376832 -134.42646503 455.98754978 C-134.42777757 454.53830865 -134.43041217 453.08906823 -134.43423253 451.63983154 C-134.44086165 447.70813938 -134.42905109 443.77669777 -134.41389835 439.84503746 C-134.40083122 435.58624766 -134.40533492 431.32746974 -134.40760517 427.0686655 C-134.40917122 419.70680541 -134.39983237 412.34502566 -134.38289165 404.98318577 C-134.35841493 394.33947399 -134.35068755 383.69580069 -134.34692768 373.05206382 C-134.34037674 355.77947923 -134.32045258 338.50693737 -134.29201984 321.23437595 C-134.26444403 304.46484686 -134.24322772 287.69532942 -134.23049641 270.9257822 C-134.22970824 269.89051132 -134.22892007 268.85524043 -134.22810801 267.7885977 C-134.22419264 262.59447113 -134.22040158 257.40034448 -134.2166723 252.20621777 C-134.1856187 209.17846488 -134.13282007 166.15075857 -134.06570148 123.12304783 C-133.40570148 123.12304783 -132.74570148 123.12304783 -132.06570148 123.12304783 C-132.02702961 122.26864109 -132.02702961 122.26864109 -131.98757648 121.39697361 C-131.45994672 113.86475886 -129.47659923 107.12749603 -127.06570148 99.99804783 C-126.667784 98.81114353 -126.26986652 97.62423923 -125.85989094 96.40136814 C-122.56938865 86.91944952 -118.40680384 78.57894219 -113.06570148 70.12304783 C-112.35985921 68.88518162 -111.65931495 67.64427921 -110.96413898 66.40039158 C-109.56517306 63.98530431 -108.33997612 61.9911232 -106.50320148 59.93554783 C-105.99788898 59.36707127 -105.49257648 58.7985947 -104.97195148 58.21289158 C-104.34288898 57.52324314 -103.71382648 56.8335947 -103.06570148 56.12304783 C-102.18913898 55.15496189 -101.31257648 54.18687595 -100.40945148 53.18945408 C-90.36089843 42.14062326 -79.99592823 30.85631805 -67.06570148 23.12304783 C-66.40570148 23.12304783 -65.74570148 23.12304783 -65.06570148 23.12304783 C-65.06570148 22.46304783 -65.06570148 21.80304783 -65.06570148 21.12304783 C-43.34379137 10.12304783 -43.34379137 10.12304783 -40.06570148 10.12304783 C-39.73570148 9.46304783 -39.40570148 8.80304783 -39.06570148 8.12304783 C-37.00304327 7.73185403 -34.97126881 7.61630264 -32.87820148 7.46679783 C-32.28007648 7.35336033 -31.68195148 7.23992283 -31.06570148 7.12304783 C-30.73570148 6.46304783 -30.40570148 5.80304783 -30.06570148 5.12304783 C-29.07570148 5.61804783 -29.07570148 5.61804783 -28.06570148 6.12304783 C-27.73570148 5.13304783 -27.40570148 4.14304783 -27.06570148 3.12304783 C-27.06570148 3.78304783 -27.06570148 4.44304783 -27.06570148 5.12304783 C-25.9687093 4.84589939 -24.87171711 4.56875095 -23.74148273 4.28320408 C-22.28707155 3.91725546 -20.83264358 3.55137356 -19.37820148 3.18554783 C-18.65697102 3.00314548 -17.93574055 2.82074314 -17.19265461 2.63281345 C-16.48689289 2.45556736 -15.78113117 2.27832127 -15.05398273 2.09570408 C-14.40985432 1.93336277 -13.7657259 1.77102146 -13.10207844 1.60376072 C-8.65123888 0.55308297 -4.58924002 -0.00164666 0 0 Z " fill="#AEF5AF" transform="translate(134.06570148468018,-0.1230478286743164)"/>
<path d="M0 0 C0.00135653 0.64119382 0.00271306 1.28238764 0.00411069 1.94301158 C0.08479807 39.96333053 0.17576796 77.983612 0.28005161 116.00387381 C0.29257016 120.57118586 0.30500299 125.13849813 0.31738281 129.70581055 C0.31984881 130.61506264 0.3223148 131.52431473 0.32485552 132.46111991 C0.36455614 147.1747262 0.39731541 161.88834015 0.42749982 176.60196868 C0.45863724 191.7046605 0.49725643 206.80731989 0.54279006 221.90997523 C0.57064141 231.22565735 0.59268897 240.54131581 0.60726251 249.85702833 C0.61782195 256.2491361 0.63566271 262.641198 0.65916704 269.03327117 C0.67250532 272.71860673 0.68269283 276.40387813 0.68421364 280.08923912 C0.68594985 284.09231638 0.70304952 288.09518585 0.7215271 292.09822083 C0.718625 293.83026779 0.718625 293.83026779 0.71566427 295.5973056 C0.79340718 306.88919733 1.57238876 319.25954042 9.765625 327.8515625 C16.5020136 333.0709781 24.79478454 333.85227661 33 335 C33 337.97 33 340.94 33 344 C31.70078613 343.98428955 30.40157227 343.9685791 29.06298828 343.95239258 C24.15387392 343.89730191 19.24478566 343.86336786 14.33544922 343.83520508 C12.22732927 343.82029594 10.11923933 343.79996151 8.01123047 343.77368164 C-8.38319252 343.57470126 -23.07631019 345.01907755 -39 349 C-39.33 337.12 -39.66 325.24 -40 313 C-42.31 316.96 -44.62 320.92 -47 325 C-57.14669851 338.47321087 -70.85807996 346.75546292 -87.48144531 349.67041016 C-110.63022429 352.69976762 -133.74459916 348.79327004 -153.0546875 335.28125 C-176.37241282 317.22083676 -186.14248666 289.36406871 -190 261 C-190.09571289 260.30745117 -190.19142578 259.61490234 -190.29003906 258.90136719 C-191.30882952 250.34571833 -191.24367662 241.72875644 -191.25 233.125 C-191.25067474 232.30019135 -191.25134949 231.47538269 -191.25204468 230.62557983 C-191.23589111 218.19141216 -190.80796788 206.16325459 -188 194 C-187.83371094 193.24315918 -187.66742188 192.48631836 -187.49609375 191.70654297 C-182.95453336 171.59331765 -173.23988664 153.90698043 -159 139 C-158.45988281 138.38511719 -157.91976562 137.77023438 -157.36328125 137.13671875 C-143.04519561 121.44813625 -119.31411798 112.78338949 -98.53125 111.62109375 C-79.32301391 110.99578667 -60.30447025 114.83236975 -45.6484375 128.12890625 C-43.48955644 130.57938973 -41.79320192 133.27465619 -40 136 C-39.9300917 124.67221269 -39.87698326 113.34447779 -39.84456348 102.01651764 C-39.82899351 96.75491139 -39.80791612 91.49345413 -39.77368164 86.23193359 C-39.74077587 81.14201927 -39.72308205 76.05224709 -39.71536827 70.9622345 C-39.70988022 69.03283963 -39.69916581 67.10345139 -39.68280983 65.17411804 C-39.03895016 41.53567438 -39.03895016 41.53567438 -49 21 C-54.19211399 17.43969327 -58.7616762 16.14964871 -64.9375 15.25 C-66.10635742 15.06244141 -66.10635742 15.06244141 -67.29882812 14.87109375 C-69.19727392 14.56827418 -71.09840238 14.28235195 -73 14 C-73 11.03 -73 8.06 -73 5 C-71.80737549 5.01571045 -70.61475098 5.0314209 -69.38598633 5.04760742 C-64.85139041 5.10297022 -60.3168224 5.13672585 -55.78198242 5.16479492 C-53.83987362 5.17964456 -51.89779683 5.19992952 -49.95581055 5.22631836 C-33.03415429 5.45006855 -16.35205389 0 0 0 Z " fill="#374636" transform="translate(276,87)"/>
<path d="M0 0 C3.67105557 3.00142382 6.97518075 6.29235365 10.26367188 9.70410156 C10.98941406 10.41050781 11.71515625 11.11691406 12.46289062 11.84472656 C30.64869946 30.56646297 37.82070758 60.36021585 38.26367188 85.70410156 C38.28268555 86.34234863 38.30169922 86.9805957 38.32128906 87.63818359 C39.42048896 126.4075047 31.04359769 168.24057284 4.26367188 197.70410156 C-2.8697483 205.15894037 -10.71727843 210.73305937 -19.73632812 215.70410156 C-20.60644531 216.1875 -21.4765625 216.67089844 -22.37304688 217.16894531 C-40.80297347 226.45446729 -65.8451915 228.34607177 -85.45117188 222.02441406 C-94.99754834 218.18770152 -107.86582451 212.44510879 -112.73632812 202.70410156 C-112.80617534 210.6151565 -112.85931404 218.52608024 -112.89176464 226.43736839 C-112.90734791 230.11184034 -112.92844977 233.78609962 -112.96264648 237.46044922 C-112.99550478 241.01366865 -113.01323616 244.56668494 -113.02095985 248.12004471 C-113.02911129 250.11951657 -113.05248737 252.11890796 -113.07621765 254.11825562 C-113.07791553 263.41365013 -112.5807512 273.13208725 -105.75585938 280.17285156 C-96.02069562 287.55425232 -83.43731581 287.87625977 -71.73632812 288.70410156 C-71.73632812 291.67410156 -71.73632812 294.64410156 -71.73632812 297.70410156 C-72.8614682 297.70188095 -73.98660828 297.69966034 -75.14584351 297.69737244 C-85.82415591 297.6769735 -96.50246428 297.66204952 -107.18079185 297.65228939 C-112.66871334 297.64710272 -118.15661892 297.64008304 -123.64453125 297.62866211 C-128.95489276 297.61768166 -134.26523911 297.61179311 -139.57561111 297.60922432 C-141.58706526 297.60739707 -143.59851871 297.60382997 -145.60996628 297.59837151 C-158.02398109 297.56606764 -170.3496196 297.86022468 -182.73632812 298.70410156 C-182.73632812 295.40410156 -182.73632812 292.10410156 -182.73632812 288.70410156 C-181.74632812 288.60613281 -180.75632812 288.50816406 -179.73632812 288.40722656 C-169.04922394 287.50975973 -169.04922394 287.50975973 -159.73632812 282.70410156 C-156.08824964 278.10108489 -154.61477254 273.23466987 -154.60490036 267.44761562 C-154.59913864 266.17614718 -154.59913864 266.17614718 -154.59326053 264.8789925 C-154.59412701 263.95264674 -154.59499349 263.02630099 -154.59588623 262.07188416 C-154.59291511 261.08392446 -154.58994399 260.09596476 -154.58688283 259.07806689 C-154.57819137 255.75800938 -154.57668718 252.43798791 -154.57519531 249.11791992 C-154.57056737 246.7411186 -154.56554274 244.36431802 -154.56015015 241.98751831 C-154.54701985 235.52234806 -154.54054285 229.0571847 -154.53613949 222.59200358 C-154.53337492 218.55223061 -154.52913709 214.51246003 -154.52463531 210.47268867 C-154.512442 199.28036493 -154.50214387 188.0880431 -154.49876022 176.89571285 C-154.49854066 176.17949099 -154.49832109 175.46326912 -154.49809487 174.72534356 C-154.49787659 174.00743365 -154.49765832 173.28952374 -154.49743342 172.54985899 C-154.49698996 171.09516966 -154.4965434 169.64048034 -154.49609375 168.18579102 C-154.49576161 167.10343306 -154.49576161 167.10343306 -154.49542275 165.99920929 C-154.49147845 154.31861935 -154.47403598 142.63809195 -154.45073423 130.95752614 C-154.42698522 118.9554822 -154.4145567 106.95346958 -154.41339231 94.95140177 C-154.41247736 88.21672668 -154.40677103 81.48213299 -154.38857269 74.74748039 C-154.37207355 68.40849457 -154.36994559 62.06966296 -154.3787117 55.7306633 C-154.37948114 53.40835596 -154.37515167 51.08604027 -154.36525345 48.76375389 C-154.3524994 45.58405528 -154.35842987 42.40489996 -154.36883545 39.22520447 C-154.36077904 38.31447377 -154.35272264 37.40374307 -154.3444221 36.46541446 C-154.41736476 26.88081213 -156.45536258 17.2093231 -162.73632812 9.70410156 C-169.86536855 3.94019654 -177.92670482 3.04407663 -186.73632812 1.70410156 C-186.73632812 -1.26589844 -186.73632812 -4.23589844 -186.73632812 -7.29589844 C-184.79536255 -7.27233276 -184.79536255 -7.27233276 -182.81518555 -7.24829102 C-177.91909246 -7.19314017 -173.02302549 -7.15924542 -168.12670898 -7.13110352 C-166.02542473 -7.11620761 -163.92417046 -7.09588402 -161.82299805 -7.06958008 C-145.17499149 -6.86670115 -129.89440604 -8.25637896 -113.73632812 -12.29589844 C-113.40632813 1.56410156 -113.07632813 15.42410156 -112.73632812 29.70410156 C-108.28132813 22.77410156 -108.28132813 22.77410156 -103.73632812 15.70410156 C-78.92028154 -14.86639061 -32.73884589 -24.43444797 0 0 Z " fill="#374636" transform="translate(477.736328125,212.2958984375)"/>
<path d="M0 0 C9.47302633 7.16786717 16.86277149 16.71564022 18.65735245 28.73157883 C19.3354987 36.86754463 19.26456538 45.02188879 19.17502809 53.17923999 C19.1431467 56.754659 19.15361932 60.33000832 19.15788269 63.90553284 C19.1587073 69.90619994 19.12816821 75.90605413 19.07739258 81.90649414 C19.01937814 88.79708223 19.007041 95.68656099 19.02025205 102.5773558 C19.03234603 109.26449258 19.0157055 115.9512537 18.98511314 122.63832283 C18.9724521 125.45728694 18.96866473 128.27604137 18.97239113 131.09502983 C18.98468762 154.29096312 17.28550854 174.7447689 0.55078125 192.375 C-10.29745789 202.93491385 -21.02255591 207.03256538 -36.1015625 206.875 C-45.93645006 206.31419332 -53.81368356 203.35944625 -61.80078125 197.6640625 C-62.48785156 197.18453125 -63.17492187 196.705 -63.8828125 196.2109375 C-81.30946741 182.59958574 -86.94261064 157.85609499 -89.7109375 137.125 C-94.46438373 98.13868422 -96.63442246 46.99610142 -71.80078125 13.6640625 C-54.29819119 -8.50806185 -24.63048397 -16.52888676 0 0 Z " fill="#AEF5AF" transform="translate(218.80078125,217.3359375)"/>
<path d="M0 0 C2.5 2.3125 2.5 2.3125 5 5 C5.70962891 5.71929687 5.70962891 5.71929687 6.43359375 6.453125 C19.51027985 20.4468774 22.78466468 41.68375307 25 60 C25.09643799 60.75909668 25.19287598 61.51819336 25.29223633 62.30029297 C26.35253799 71.95536403 26.19893836 81.67484903 26.1875 91.375 C26.18689575 92.31541138 26.1862915 93.25582275 26.18566895 94.22473145 C26.16233124 107.57105029 26.03701476 120.78264519 24 134 C23.86577637 134.90008789 23.73155273 135.80017578 23.59326172 136.72753906 C20.08475041 159.59697159 13.98243924 184.29577894 -5.54296875 198.90234375 C-18.68050053 207.23296468 -34.81180272 209.23903659 -50.0078125 206.3515625 C-61.38697156 203.42549303 -70.53281956 197.04410053 -78 188 C-78.41441817 187.50095783 -78.82883635 187.00191566 -79.25581264 186.48775101 C-83.82095196 180.23652131 -83.70365294 174.42700855 -83.63110352 166.88964844 C-83.63825882 165.59102371 -83.64541412 164.29239899 -83.65278625 162.954422 C-83.67122136 159.41055149 -83.65840972 155.86743832 -83.63869596 152.32359982 C-83.62222831 148.59896503 -83.63113422 144.8743752 -83.63621521 141.14971924 C-83.64072942 134.89217135 -83.62491399 128.634923 -83.59692383 122.37744141 C-83.56493083 115.17008901 -83.56486799 107.96327831 -83.5821386 100.75588775 C-83.59807768 93.79438683 -83.59121938 86.83308215 -83.57420158 79.87158966 C-83.56737601 76.92290185 -83.56831698 73.97437348 -83.57574654 71.02568817 C-83.58492577 66.89280341 -83.56071867 62.76073473 -83.53344727 58.62792969 C-83.53997314 57.42129166 -83.54649902 56.21465363 -83.55322266 54.97145081 C-83.37409664 38.91142481 -76.51809853 22.75724067 -65.30078125 11.23828125 C-64.54152344 10.49964844 -63.78226562 9.76101562 -63 9 C-62.31292969 8.29230469 -61.62585938 7.58460938 -60.91796875 6.85546875 C-45.2709379 -8.32708623 -18.17834657 -14.99713592 0 0 Z " fill="#AFF5B0" transform="translate(447,220)"/>
<path d="M0 0 C0.66 0.33 1.32 0.66 2 1 C1.56655273 1.42297363 1.13310547 1.84594727 0.68652344 2.28173828 C-1.29770403 4.22407533 -3.2738637 6.17443293 -5.25 8.125 C-6.27287109 9.12273437 -6.27287109 9.12273437 -7.31640625 10.140625 C-11.08234367 13.86999992 -14.25624679 17.46007844 -17 22 C-17.33 21.34 -17.66 20.68 -18 20 C-7.60629921 5.07086614 -7.60629921 5.07086614 0 0 Z " fill="#B4EDB5" transform="translate(161,217)"/>
<path d="M0 0 C0.66 0.33 1.32 0.66 2 1 C-3.61 6.61 -9.22 12.22 -15 18 C-15 12.50089132 -9.68936771 8.76735434 -6 5 C-4.05347234 3.22256464 -2.09090037 1.6083849 0 0 Z " fill="#324F32" transform="translate(389,213)"/>
<path d="M0 0 C0 0.66 0 1.32 0 2 C-2.76452033 3.38226016 -5.0461363 3.09525387 -8.125 3.0625 C-9.22070312 3.05347656 -10.31640625 3.04445312 -11.4453125 3.03515625 C-12.70988281 3.01775391 -12.70988281 3.01775391 -14 3 C-14.33 2.34 -14.66 1.68 -15 1 C-10.03926578 -0.32286246 -5.08888488 -0.08893197 0 0 Z " fill="#B4F0B6" transform="translate(138,0)"/>
<path d="M0 0 C3.3 0 6.6 0 10 0 C8 2 8 2 4.875 2.125 C3.92625 2.08375 2.9775 2.0425 2 2 C2 4.64 2 7.28 2 10 C1.34 10 0.68 10 0 10 C0 6.7 0 3.4 0 0 Z " fill="#3A5E3A" transform="translate(295,501)"/>
<path d="M0 0 C0.66 0.66 1.32 1.32 2 2 C0.625 3.5 0.625 3.5 -1 5 C-1.66 5 -2.32 5 -3 5 C-3 5.66 -3 6.32 -3 7 C-3.66 7 -4.32 7 -5 7 C-5 6.01 -5 5.02 -5 4 C-2.5 1.8125 -2.5 1.8125 0 0 Z " fill="#B5F0B5" transform="translate(48,38)"/>
<path d="" fill="#B2F2B3" transform="translate(0,0)"/>
<path d="M0 0 C2 1 2 1 2 1 Z " fill="#AFF3B0" transform="translate(572,543)"/>
<path d="" fill="#AAEEAB" transform="translate(0,0)"/>
<path d="" fill="#A9ECAA" transform="translate(0,0)"/>
<path d="" fill="#B3F4B3" transform="translate(0,0)"/>
<path d="" fill="#ACF0AE" transform="translate(0,0)"/>
<path d="" fill="#AAEEAB" transform="translate(0,0)"/>
<path d="" fill="#A0E1A1" transform="translate(0,0)"/>
<path d="" fill="#AAEEAB" transform="translate(0,0)"/>
<path d="" fill="#A0E1A1" transform="translate(0,0)"/>
<path d="" fill="#B0F0B1" transform="translate(0,0)"/>
<path d="" fill="#AEF4AF" transform="translate(0,0)"/>
<path d="" fill="#B2EFB2" transform="translate(0,0)"/>
<path d="" fill="#A7EAA8" transform="translate(0,0)"/>
<path d="" fill="#AFF0B0" transform="translate(0,0)"/>
<path d="" fill="#A0E1A1" transform="translate(0,0)"/>
<path d="" fill="#B0F0AF" transform="translate(0,0)"/>
<path d="" fill="#ACF2AC" transform="translate(0,0)"/>
<path d="" fill="#ACF1AD" transform="translate(0,0)"/>
<path d="" fill="#AFEFAF" transform="translate(0,0)"/>
<path d="" fill="#B1F0B1" transform="translate(0,0)"/>
<path d="" fill="#AEF5AF" transform="translate(0,0)"/>
<path d="" fill="#B2F1B3" transform="translate(0,0)"/>
<path d="" fill="#B1F1B2" transform="translate(0,0)"/>
<path d="" fill="#A0E1A1" transform="translate(0,0)"/>
<path d="" fill="#AEEEAF" transform="translate(0,0)"/>
<path d="" fill="#AFEFB0" transform="translate(0,0)"/>
<path d="" fill="#A1E1A1" transform="translate(0,0)"/>
<path d="" fill="#B2F2B3" transform="translate(0,0)"/>
<path d="" fill="#A0E1A1" transform="translate(0,0)"/>
<path d="" fill="#A0E1A1" transform="translate(0,0)"/>
<path d="" fill="#A1E1A1" transform="translate(0,0)"/>
<path d="" fill="#B1F2B3" transform="translate(0,0)"/>
<path d="" fill="#B0EFB1" transform="translate(0,0)"/>
<path d="" fill="#A8EAA8" transform="translate(0,0)"/>
<path d="" fill="#A8EAA8" transform="translate(0,0)"/>
<path d="" fill="#AEF3AF" transform="translate(0,0)"/>
<path d="" fill="#B0F0B2" transform="translate(0,0)"/>
<path d="" fill="#AFEFB0" transform="translate(0,0)"/>
<path d="" fill="#ABF0AC" transform="translate(0,0)"/>
<path d="" fill="#AAEEAB" transform="translate(0,0)"/>
<path d="" fill="#AAEEAB" transform="translate(0,0)"/>
<path d="" fill="#B1F1B2" transform="translate(0,0)"/>
<path d="" fill="#B1EEB2" transform="translate(0,0)"/>
<path d="" fill="#A0E1A1" transform="translate(0,0)"/>
<path d="" fill="#AAEEAB" transform="translate(0,0)"/>
<path d="" fill="#AAEEAB" transform="translate(0,0)"/>
<path d="" fill="#A7EBA8" transform="translate(0,0)"/>
<path d="" fill="#AAEEAB" transform="translate(0,0)"/>
<path d="" fill="#ABF0AC" transform="translate(0,0)"/>
<path d="" fill="#ACF2AD" transform="translate(0,0)"/>
<path d="" fill="#B1EFB2" transform="translate(0,0)"/>
<path d="" fill="#ABF0AC" transform="translate(0,0)"/>
<path d="" fill="#B0F0B1" transform="translate(0,0)"/>
<path d="" fill="#ABF0AB" transform="translate(0,0)"/>
<path d="" fill="#AEF5AF" transform="translate(0,0)"/>
<path d="" fill="#B0F0B0" transform="translate(0,0)"/>
<path d="" fill="#AAF3AB" transform="translate(0,0)"/>
<path d="" fill="#A0E1A1" transform="translate(0,0)"/>
<path d="" fill="#ADF3AE" transform="translate(0,0)"/>
<path d="" fill="#ABF2AC" transform="translate(0,0)"/>
<path d="" fill="#B2EFB3" transform="translate(0,0)"/>
<path d="" fill="#A0E1A1" transform="translate(0,0)"/>
<path d="" fill="#AFEFB1" transform="translate(0,0)"/>
<path d="" fill="#B1EFB2" transform="translate(0,0)"/>
<path d="" fill="#ABF2AD" transform="translate(0,0)"/>
<path d="" fill="#A0E1A1" transform="translate(0,0)"/>
<path d="" fill="#A0E1A1" transform="translate(0,0)"/>
<path d="" fill="#AEEFAF" transform="translate(0,0)"/>
<path d="" fill="#A0E1A1" transform="translate(0,0)"/>
<path d="" fill="#AAEEAB" transform="translate(0,0)"/>
<path d="" fill="#A8EAA9" transform="translate(0,0)"/>
<path d="" fill="#A1E1A1" transform="translate(0,0)"/>
<path d="" fill="#A1E1A1" transform="translate(0,0)"/>
<path d="" fill="#A8EAA8" transform="translate(0,0)"/>
<path d="" fill="#A8EAA8" transform="translate(0,0)"/>
<path d="" fill="#AFF5B0" transform="translate(0,0)"/>
<path d="" fill="#A8EAA8" transform="translate(0,0)"/>
<path d="" fill="#B3F0B4" transform="translate(0,0)"/>
<path d="" fill="#B3F0B3" transform="translate(0,0)"/>
<path d="" fill="#A0E1A1" transform="translate(0,0)"/>
<path d="" fill="#B3F0B3" transform="translate(0,0)"/>
<path d="" fill="#B3EFB3" transform="translate(0,0)"/>
<path d="" fill="#B0F6B1" transform="translate(0,0)"/>
<path d="" fill="#B2F1B2" transform="translate(0,0)"/>
<path d="" fill="#A7EAA8" transform="translate(0,0)"/>
<path d="" fill="#B0F6B1" transform="translate(0,0)"/>
<path d="" fill="#A0E1A1" transform="translate(0,0)"/>
<path d="" fill="#A0E1A1" transform="translate(0,0)"/>
<path d="" fill="#ABF1AC" transform="translate(0,0)"/>
<path d="" fill="#AEF5AF" transform="translate(0,0)"/>
<path d="" fill="#B3EFB4" transform="translate(0,0)"/>
<path d="" fill="#B0F1B1" transform="translate(0,0)"/>
<path d="" fill="#A7EBA8" transform="translate(0,0)"/>
</svg>
